<svg
  t="1654084829711"
  class="icon"
  viewBox="0 0 1024 1024"
  version="1.1"
  xmlns="http://www.w3.org/2000/svg"
  p-id="2774"
  width="200"
  height="200"
><path d="M798.04051911 940.9575443c-8.69929718 0-16.15583763-6.2137837-18.01997275-14.29170252-1.86413511 8.07791882-9.32067555 14.29170252-18.01997273 14.29170252h-0.62137838c-10.5634323 0-18.64135111-8.69929718-18.01997274-19.26272949 3.72827022-128.0039443 31.06891852-216.86105125 47.22475615-259.11478045 3.72827022-13.04894578 8.07791882-23.61237808 14.29170252-31.06891851 6.2137837-7.45654045 16.777216-9.32067555 24.85513482-3.72827022 8.07791882 4.97102697 10.5634323 15.53445925 6.2137837 24.23375645 0 0-4.97102697 9.94205392-11.80618904 27.96202666-11.80618903 52.19578311-11.80618903 163.42251141-7.45654044 241.0948077 0.62137837 10.5634323-7.45654045 19.26272948-17.39859437 19.88410786h-1.24275674z" fill="#FF7879" p-id="2775"></path><path d="M859.55697778 784.37019496c-4.97102697 0-9.94205392-1.86413511-13.04894578-5.59240533-4.97102697-4.97102697-6.83516208-11.80618903-4.34964859-18.64135112 14.29170252-44.73924267-8.69929718-92.58537718-19.26272949-110.60534993-18.01997275 4.97102697-61.51645867 34.79718875-100.04191762 68.35162075-5.59240533 4.34964859-13.04894578 5.59240533-19.26272949 3.10689185s-11.18481067-8.69929718-11.80618903-15.53445926c-4.97102697-59.03094518 6.83516208-101.28467437 36.03994547-124.89705244 14.29170252-11.80618903 30.44754015-17.39859437 44.73924267-19.26272948-18.01997275-11.80618903-43.49648592-22.36962133-62.75921541-27.3406483-8.07791882-1.86413511-13.67032415-8.69929718-13.67032415-16.777216-0.62137837-8.07791882 4.34964859-15.53445925 11.80618905-18.64135112 56.5454317-21.74824297 101.28467437-22.9909997 133.59634962-2.48551347 23.61237808 14.91308089 34.17581037 37.28270222 38.52545897 53.43853985 41.63235082-3.10689185 73.3226477 6.2137837 94.4495123 28.58340504 37.90408059 40.38959408 24.85513482 105.01294459 24.23375644 107.49845808-1.86413511 9.32067555-10.5634323 15.53445925-19.88410786 14.91308088-9.32067555-0.62137837-16.777216-8.07791882-17.39859437-18.01997274-0.62137837-8.69929718-10.5634323-19.88410785-36.66132385-29.20478341 8.07791882 29.82616178 7.45654045 56.5454317-3.10689185 78.91505304-17.39859437 39.14683733-55.92405333 50.95302637-57.78818845 51.57440473-1.24275675 0-3.10689185 0.62137837-4.34964858 0.62137838z m-31.06891853-172.74318696c3.72827022 0 7.45654045 0.62137837 10.5634323 1.86413511 3.72827022 1.24275675 6.83516208 3.72827022 9.32067556 6.83516207 1.86413511 2.48551348 33.554432 49.08889125 34.79718874 105.63432297l5.59240533-9.32067557c9.32067555-21.12686459 5.59240533-49.08889125-9.94205393-83.26470162-3.72827022-7.45654045-1.86413511-16.15583763 4.3496486-21.74824296 4.97102697-4.34964859 11.80618903-6.2137837 18.01997273-4.34964859l1.86413512 0.62137837c25.47651318 5.59240533 44.1178643 12.42756741 58.40956681 20.50548622-2.48551348-8.69929718-6.83516208-17.39859437-13.67032415-24.85513482-15.53445925-16.15583763-41.63235082-21.12686459-78.91505303-15.53445926-4.97102697 0.62137837-10.5634323-0.62137837-14.29170252-3.72827022s-6.83516208-8.07791882-6.83516207-13.04894578c0 0-2.48551348-29.20478341-25.47651319-43.49648592-11.80618903-7.45654045-27.3406483-9.94205392-46.60337777-8.07791882 24.85513482 13.04894578 49.71026963 31.69029689 56.5454317 57.16681007 1.86413511 6.2137837 0 13.67032415-4.97102697 18.01997275-4.97102697 4.97102697-11.80618903 6.83516208-18.01997273 4.97102696 0 0-34.79718875-8.69929718-57.78818845 9.94205392-13.04894578 10.5634323-20.50548622 29.82616178-22.9909997 55.30267497 32.93305363-26.71926992 73.3226477-53.43853985 100.04191762-53.43853985z m-1.24275674 37.28270222z" fill="#FF7879" p-id="2776"></path><path d="M93.39744711 1020.4939757c-14.91308089 0-29.20478341-8.69929718-34.79718875-23.61237807-7.45654045-19.26272948 1.86413511-41.01097245 21.1268646-48.46751289l159.69424119-62.75921541c31.06891852-12.42756741 65.24472889-13.67032415 97.55640415-3.72827022l177.09283555 55.30267497c13.67032415 4.34964859 28.58340503 4.34964859 42.25372918 0l180.82110578-55.92405334c31.69029689-9.94205392 66.48748563-8.07791882 97.55640415 4.34964859l155.34459259 62.75921541c19.26272948 7.45654045 28.58340503 29.20478341 20.50548623 48.46751289-7.45654045 19.26272948-29.20478341 28.58340503-48.4675129 20.50548622l-155.34459258-62.75921541c-14.91308089-6.2137837-32.31167525-6.83516208-47.84613452-1.86413511l-180.82110578 55.92405333c-28.58340503 8.69929718-58.40956682 8.69929718-86.37159349 0l-177.09283555-55.30267496c-15.53445925-4.97102697-32.31167525-4.34964859-47.84613452 1.86413511L107.06777125 1018.00846222c-4.34964859 1.24275675-9.32067555 2.48551348-13.67032414 2.48551348z" fill="#4B81EE" p-id="2777"></path><path d="M445.71898311 981.34713836h-2.48551348c-20.50548622-1.24275675-36.03994548-18.64135111-34.79718875-39.7682157 9.94205392-165.28664652 9.94205392-403.89594075-16.15583763-514.50129066-14.29170252-37.28270222-24.23375645-57.16681008-24.23375644-57.78818845-8.69929718-16.777216-3.10689185-37.90408059 12.42756741-48.46751289 16.15583763-10.5634323 37.28270222-7.45654045 49.08889126 7.45654045 12.42756741 14.91308089 21.74824297 37.90408059 29.82616177 65.24472889 34.79718875 89.47848533 92.58537718 277.75613155 100.04191763 548.67710103 0.62137837 20.50548622-15.53445925 37.90408059-36.03994547 38.52545897-20.50548622 0.62137837-37.90408059-15.53445925-38.52545897-36.03994549 0-8.69929718-0.62137837-16.777216-0.62137836-25.47651318-0.62137837 10.5634323-1.24275675 19.88410785-1.24275675 26.71926992-1.86413511 20.50548622-18.01997275 35.41856711-37.28270222 35.41856711z" fill="#4B81EE" p-id="2778"></path><path d="M372.39633541 324.55020088S271.73303941 469.95273955 315.8509037 611.00562963c0 0-188.89902459-56.5454317-76.42953955-298.26161778-3.72827022 1.86413511-177.71421392 28.58340503-181.44248415 119.30464711 0 0-59.65232355-284.59129363 244.82307792-237.98791585 0 0 15.53445925-233.01688889 320.00986074-114.95499853 0 0-185.17075437 49.08889125-210.64726755 139.18875497 0 0 247.92996978-68.97299911 219.96794311 260.35753719 0.62137837 0.62137837-200.08383525-175.22870045-259.73615881-154.10183586z" fill="#DBE6FC" p-id="2779"></path><path d="M315.8509037 648.28833185c-3.72827022 0-7.45654045-0.62137837-10.56343229-1.86413511-3.10689185-1.24275675-83.88608-26.09789155-121.16878223-108.11983644-21.74824297-48.46751289-23.61237808-105.63432297-4.97102696-170.25767349-52.19578311 18.01997275-82.64332325 41.63235082-83.26470164 65.86610727-0.62137837 18.64135111-15.53445925 34.17581037-34.17581036 35.4185671-18.64135111 1.24275675-35.41856711-11.18481067-39.76821571-29.82616177-1.24275675-5.59240533-28.58340503-141.67426845 51.57440474-226.18172683 44.73924267-46.60337778 111.84810667-67.108864 200.08383526-59.65232355 9.94205392-33.554432 31.69029689-82.02194489 81.40056652-113.71224178 67.73024237-42.87510755 162.17975467-41.63235082 281.48440178 4.97102697 14.91308089 5.59240533 24.85513482 20.50548622 23.61237807 36.66132386s-11.80618903 29.82616178-27.96202666 34.17581036c-34.79718875 9.32067555-96.31364741 32.31167525-138.56737659 61.51645867 32.31167525 3.72827022 68.35162075 14.91308089 100.04191762 41.63235081 60.8950803 50.331648 86.37159348 139.18875497 75.80816119 263.46442904-1.24275675 14.29170252-9.94205392 26.09789155-22.9909997 31.69029689-13.04894578 4.97102697-27.96202667 2.48551348-38.52545896-6.2137837-83.26470163-73.3226477-177.09283555-136.70324148-214.37553778-146.64529541-21.74824297 38.52545897-72.07989097 141.67426845-42.25372919 238.60929422 4.34964859 13.04894578 0.62137837 27.3406483-9.32067556 37.28270222-6.83516208 7.45654045-16.15583763 11.18481067-26.09789155 11.18481067z m-76.42953955-372.82702222c9.32067555 0 18.01997275 3.10689185 25.47651318 9.94205392 11.80618903 11.18481067 15.53445925 28.58340503 8.69929718 42.87510756-34.17581037 73.3226477-41.63235082 133.59634963-21.74824296 178.95697067 4.34964859 9.94205392 9.94205392 18.64135111 15.53445926 25.47651318 0.62137837-121.79016059 70.83713422-224.3175917 73.94402607-229.90999704 4.34964859-6.2137837 10.5634323-11.18481067 18.01997275-13.67032414 27.3406483-9.94205392 71.45851259-8.69929718 187.03488948 74.56540444 18.01997275 13.04894578 34.79718875 26.09789155 50.331648 37.90408059-4.34964859-58.40956682-21.12686459-101.28467437-50.331648-125.51843081-49.08889125-41.01097245-123.03291733-21.74824297-123.6542957-21.74824297-13.04894578 3.72827022-26.71926992 0-36.66132386-9.32067555-9.32067555-9.32067555-13.04894578-23.61237808-9.32067555-36.66132385 15.53445925-55.30267497 72.07989097-95.69226903 126.13980918-123.03291733-44.1178643-5.59240533-80.77918815 0-107.49845807 16.777216-49.71026963 31.06891852-55.30267497 94.4495123-55.30267496 95.07089066-0.62137837 10.5634323-6.2137837 19.88410785-14.29170252 26.09789155-8.07791882 6.2137837-18.64135111 9.32067555-28.58340505 7.45654045-80.15780978-12.42756741-137.32461985-1.24275675-170.25767347 33.554432-15.53445925 16.777216-24.85513482 37.28270222-29.82616178 58.40956682 30.44754015-17.39859437 71.45851259-33.554432 128.0039443-45.36062104 1.24275675 0 2.48551348-0.62137837 3.10689185-0.62137838 4.34964859-0.62137837 8.07791882-1.24275675 11.18481067-1.24275673z m-18.01997274 4.97102695z m0 0z m0 0z" fill="#4B81EE" p-id="2780"></path></svg>
