<svg xmlns="http://www.w3.org/2000/svg" xmlns:xlink="http://www.w3.org/1999/xlink" viewBox="0 0 188 140"><defs><path id="a" d="M6.142 1.162C1.282 3.325-.314 13.353.05 22.297c0 0 31.988-27.7 66.297-1.225 0 0-10.953-17.242-42.143-20.703 0 0-3.972-.369-8.36-.369-3.612 0-7.507.25-9.7 1.162z"/><path id="c" d="M0 46.816c0 25.856 21.076 46.816 47.074 46.816 25.999 0 47.076-20.96 47.076-46.816C94.15 20.961 73.073 0 47.074 0 21.076 0 0 20.961 0 46.816z"/><path id="e" d="M0 43.57c0 24.062 19.614 43.57 43.811 43.57 24.195 0 43.811-19.508 43.811-43.57C87.622 19.506 68.006 0 43.811 0 19.614 0 0 19.506 0 43.57z"/><path id="g" d="M0 50.35c0 27.809 21.726 50.352 48.526 50.352 26.8 0 48.526-22.543 48.526-50.352C97.052 22.543 75.326 0 48.526 0 21.726 0 0 22.543 0 50.35z"/><path id="i" d="M0 37.654C0 58.451 16.951 75.31 37.863 75.31c20.911 0 37.863-16.859 37.863-37.656C75.726 16.859 58.774 0 37.863 0 16.951 0 0 16.859 0 37.654z"/><path id="k" d="M15.695.189l4.363 6.158-.388.277C6.94 15.868 3.976 33.601 13.095 46.455l.26.36c6.641 9.063 18.02 13.462 29.117 11.255l.943 7.718-.747.134c-1.986.33-3.927.444-5.927.444l-.52-.004c-11.632-.162-22.648-5.77-29.509-15.507l-.31-.446C.976 42.49-1.091 33.005.546 23.588 2.216 13.994 7.582 5.555 15.561 0l-.267.189h.401z"/><linearGradient id="l" x1="2.519%" x2="2.519%" y1="0%" y2="112.43%"><stop offset="0%" stop-color="#044C83"/><stop offset="42.857%" stop-color="#4F943E"/><stop offset="68.254%" stop-color="#D3C842"/><stop offset="100%" stop-color="#B22423"/></linearGradient><path id="n" d="M15.292 0C7.462 5.556 2.196 13.913.546 23.399c-1.668 9.595.51 19.261 6.166 27.267 6.963 9.883 18.206 15.511 30.03 15.511 2.248 0 4.424-.145 6.673-.578l-.943-7.718c-11.243 2.236-22.776-2.309-29.377-11.615C3.883 33.282 7.002 15.32 20.058 6.158L15.695 0h-.403z"/><linearGradient id="o" x1="26.343%" x2="117.092%" y1="14.82%" y2="176.49%"><stop offset="0%" stop-color="#044C83"/><stop offset="42.857%" stop-color="#4F943E"/><stop offset="68.254%" stop-color="#D3C842"/><stop offset="100%" stop-color="#B22423"/></linearGradient><path id="q" d="M21.138.195l2.259 7.163-.564.18c-2.623.87-5.112 2.172-7.415 3.787l-.459.32a27.623 27.623 0 0 0-8.318 9.419L0 17.48v-.418l.115-.208c2.563-4.568 6.06-8.45 10.311-11.526l.494-.351C14.04 2.813 17.449 1.081 21.076 0l-.628.195h.69z"/><linearGradient id="r" x1="0%" x2="0%" y1="-.002%" y2="354.221%"><stop offset="0%" stop-color="#044C83"/><stop offset="42.857%" stop-color="#4F943E"/><stop offset="68.254%" stop-color="#D3C842"/><stop offset="100%" stop-color="#B22423"/></linearGradient><path id="t" d="M20.445 0c-3.391 1.089-6.587 2.744-9.525 4.782C6.38 7.958 2.671 12.032 0 16.866v.419l6.641 3.584a27.633 27.633 0 0 1 8.777-9.739c2.467-1.73 5.149-3.102 7.979-3.967L21.137 0h-.692z"/><linearGradient id="u" x1="-9.268%" x2="381.977%" y1="-13.698%" y2="394.169%"><stop offset="0%" stop-color="#044C83"/><stop offset="42.857%" stop-color="#4F943E"/><stop offset="68.254%" stop-color="#D3C842"/><stop offset="100%" stop-color="#B22423"/></linearGradient><path id="w" d="M39.779 0c-1.445 0-2.9.08-4.36.24C13.66 2.621-2.153 22.17.24 43.883c.58 5.41 2.323 10.605 5.006 15.293.145.216.218.36.363.577l9.865-5.555c-.146-.216-.218-.36-.364-.577-1.958-3.39-3.118-7.07-3.554-10.965-1.74-15.509 9.575-29.575 25.17-31.306a28.62 28.62 0 0 1 27.854 14.066c1.958 3.391 3.118 7.069 3.554 10.965.87 7.502-1.306 14.932-6.093 20.846-2.83 3.463-6.311 6.205-10.301 8.009l5.659 9.737a39.294 39.294 0 0 0 13.419-10.747c6.672-8.224 9.646-18.539 8.486-29.072-.581-5.41-2.321-10.603-5.005-15.293C67.128 7.5 53.936 0 39.804 0h-.025"/><linearGradient id="x" x1="22.092%" x2="137.166%" y1="20.976%" y2="147.737%"><stop offset="0%" stop-color="#044C83"/><stop offset="42.857%" stop-color="#4F943E"/><stop offset="68.254%" stop-color="#D3C842"/><stop offset="100%" stop-color="#B22423"/></linearGradient><path id="z" d="M17.209 0C5.625 7.823-1.361 21.573.223 36.315a37.811 37.811 0 0 0 4.933 15.004c7.689 13.345 22.63 20.92 38.08 19.26 10.3-1.153 19.585-6.203 26.113-14.283 6.237-7.646 9.212-17.312 8.34-27.267l-9.138 2.092c.29 7.069-1.958 13.994-6.528 19.549-4.933 6.131-12.041 10.026-19.947 10.892-11.751 1.299-23.14-4.473-29.014-14.716-2.031-3.534-3.264-7.357-3.7-11.469-1.233-11.181 3.99-21.569 12.694-27.556L17.593 0h-.384z"/><linearGradient id="A" x1="-10.22%" x2="107.382%" y1="-11.22%" y2="113.81%"><stop offset="0%" stop-color="#044C83"/><stop offset="42.857%" stop-color="#4F943E"/><stop offset="68.254%" stop-color="#D3C842"/><stop offset="100%" stop-color="#B22423"/></linearGradient><path id="C" d="M31.437 0l.627.006c.627.012 1.256.042 1.887.091l.512.047C41.96.898 49.013 4.26 54.26 9.691l.341.357c6.085 6.459 9.148 15.17 8.436 23.953l-.046.518C61.353 51.572 46.18 64.283 28.946 62.783l-.662-.063a32.23 32.23 0 0 1-11.234-3.327l5.658-5.411.547.21c2.016.74 4.149 1.18 6.343 1.378l.402.03c13.251.851 24.779-9.107 25.856-22.32l.033-.442a24.006 24.006 0 0 0-6.779-18.314l-.348-.35c-4.097-4.048-9.537-6.517-15.319-7.008l-.575-.032c-3.064-.14-6.064.236-9 1.187L7.185 33.569l.052.555c.082.731.21 1.435.383 2.186l-5.948 5.698-.21-.593A30.27 30.27 0 0 1 0 34.679v-3.381l19.081-28.82 1.088-.433A31.953 31.953 0 0 1 31.437 0z"/><linearGradient id="D" x1="0%" x2="0%" y1=".409%" y2="115.977%"><stop offset="0%" stop-color="#044C83"/><stop offset="42.857%" stop-color="#4F943E"/><stop offset="68.254%" stop-color="#D3C842"/><stop offset="100%" stop-color="#B22423"/></linearGradient><path id="F" d="M20.169 2.045l-1.088.433L0 31.298v3.378a30.107 30.107 0 0 0 1.672 7.332L7.62 36.31a18.118 18.118 0 0 1-.435-2.741L23.868 8.321c3.119-1.01 6.311-1.371 9.575-1.155 5.947.505 11.533 3.103 15.667 7.358a24.004 24.004 0 0 1 6.746 18.756c-1.088 13.346-12.839 23.372-26.258 22.29-2.394-.216-4.714-.721-6.89-1.588l-5.658 5.411a32.237 32.237 0 0 0 11.896 3.39c17.408 1.515 32.713-11.469 34.091-28.782.725-8.945-2.466-17.817-8.777-24.31C48.893 4.137 41.639.746 33.951.097A33.143 33.143 0 0 0 31.437 0c-3.85 0-7.632.682-11.268 2.045"/><linearGradient id="G" x1="-50.177%" x2="94.805%" y1="-68.917%" y2="99.904%"><stop offset="0%" stop-color="#044C83"/><stop offset="42.857%" stop-color="#4F943E"/><stop offset="68.254%" stop-color="#D3C842"/><stop offset="100%" stop-color="#B22423"/></linearGradient><path id="I" d="M0 .935v1.509l.823 6.255c3.264-.577 5.585-1.875 10.01 2.236 7.253 6.782 15.957 21.93 37.79 19.189 8.052-1.009 18.134-7.863 24.081-10.387-.141-.071 37.971-21.276 64.485 4.918C114.328 1.376 92.033 3.149 70.892 12.09c-6.674 2.814-13.347 7.502-21.036 8.511C31.505 22.91 22.728 11.585 15.91 5.165 12.577 2.007 10.703 0 6.341 0 4.668 0 2.629.296 0 .935m139.437 26.088a51.56 51.56 0 0 0-2.248-2.368 99.36 99.36 0 0 1 2.248 2.368"/><linearGradient id="J" x1="-7.042%" x2="58.607%" y1="35.776%" y2="52.533%"><stop offset="0%" stop-color="#044C83"/><stop offset="42.857%" stop-color="#4F943E"/><stop offset="68.254%" stop-color="#D3C842"/><stop offset="100%" stop-color="#B22423"/></linearGradient></defs><g fill="none" fill-rule="evenodd"><g transform="translate(119.125 108.341)"><mask id="b" fill="#fff"><use xlink:href="#a"/></mask><path fill="#FEFEFE" d="M-.365 22.661H66.71V-.365H-.365z" mask="url(#b)"/></g><g transform="translate(24.299)"><mask id="d" fill="#fff"><use xlink:href="#c"/></mask><path fill="#FEFEFE" d="M-.365 93.997h94.879V-.364H-.365z" mask="url(#d)"/></g><g transform="translate(0 34.049)"><mask id="f" fill="#fff"><use xlink:href="#e"/></mask><path fill="#FEFEFE" d="M-.365 87.504h88.351V-.365H-.365z" mask="url(#f)"/></g><g transform="translate(42.867 39.026)"><mask id="h" fill="#fff"><use xlink:href="#g"/></mask><path fill="#FEFEFE" d="M-.364 101.066h97.78V-.365H-.364z" mask="url(#h)"/></g><g transform="translate(98.429 38.016)"><mask id="j" fill="#fff"><use xlink:href="#i"/></mask><path fill="#FEFEFE" d="M-.364 75.674h76.455V-.365H-.364z" mask="url(#j)"/></g><g transform="translate(7.359 47.682)"><mask id="m" fill="#fff"><use xlink:href="#k"/></mask><path fill="url(#l)" d="M-.946 66.579h44.554V.189H-.946z" mask="url(#m)"/></g><g transform="translate(7.359 47.871)"><mask id="p" fill="#fff"><use xlink:href="#n"/></mask><path fill="url(#o)" d="M15.292 0C7.462 5.556 2.196 13.913.546 23.399c-1.668 9.595.51 19.261 6.166 27.267 6.963 9.883 18.206 15.511 30.03 15.511 2.248 0 4.424-.145 6.673-.578l-.943-7.718c-11.243 2.236-22.776-2.309-29.377-11.615C3.883 33.282 7.002 15.32 20.058 6.158L15.695 0h-.403z" mask="url(#p)"/></g><g transform="translate(8.808 62.542)"><mask id="s" fill="#fff"><use xlink:href="#q"/></mask><path fill="url(#r)" d="M0 21.267h23.583V.195H0z" mask="url(#s)"/></g><g transform="translate(8.808 62.737)"><mask id="v" fill="#fff"><use xlink:href="#t"/></mask><path fill="url(#u)" d="M20.445 0c-3.391 1.089-6.587 2.744-9.525 4.782C6.38 7.958 2.671 12.032 0 16.866v.419l6.641 3.584a27.633 27.633 0 0 1 8.777-9.739c2.467-1.73 5.149-3.102 7.979-3.967L21.137 0h-.692z" mask="url(#v)"/></g><g transform="translate(31.602 7.478)"><mask id="y" fill="#fff"><use xlink:href="#w"/></mask><path fill="url(#x)" d="M39.779 0c-1.445 0-2.9.08-4.36.24C13.66 2.621-2.153 22.17.24 43.883c.58 5.41 2.323 10.605 5.006 15.293.145.216.218.36.363.577l9.865-5.555c-.146-.216-.218-.36-.364-.577-1.958-3.39-3.118-7.07-3.554-10.965-1.74-15.509 9.575-29.575 25.17-31.306a28.62 28.62 0 0 1 27.854 14.066c1.958 3.391 3.118 7.069 3.554 10.965.87 7.502-1.306 14.932-6.093 20.846-2.83 3.463-6.311 6.205-10.301 8.009l5.659 9.737a39.294 39.294 0 0 0 13.419-10.747c6.672-8.224 9.646-18.539 8.486-29.072-.581-5.41-2.321-10.603-5.005-15.293C67.128 7.5 53.936 0 39.804 0h-.025" mask="url(#y)"/></g><g transform="translate(53.09 40.871)"><mask id="B" fill="#fff"><use xlink:href="#z"/></mask><path fill="url(#A)" d="M17.209 0C5.625 7.823-1.361 21.573.223 36.315a37.811 37.811 0 0 0 4.933 15.004c7.689 13.345 22.63 20.92 38.08 19.26 10.3-1.153 19.585-6.203 26.113-14.283 6.237-7.646 9.212-17.312 8.34-27.267l-9.138 2.092c.29 7.069-1.958 13.994-6.528 19.549-4.933 6.131-12.041 10.026-19.947 10.892-11.751 1.299-23.14-4.473-29.014-14.716-2.031-3.534-3.264-7.357-3.7-11.469-1.233-11.181 3.99-21.569 12.694-27.556L17.593 0h-.384z" mask="url(#B)"/></g><g transform="translate(104.88 44.05)"><mask id="E" fill="#fff"><use xlink:href="#C"/></mask><path fill="url(#D)" d="M0 64.511h64V-.076H0z" mask="url(#E)"/></g><g transform="translate(104.88 44.05)"><mask id="H" fill="#fff"><use xlink:href="#F"/></mask><path fill="url(#G)" d="M20.169 2.045l-1.088.433L0 31.298v3.378a30.107 30.107 0 0 0 1.672 7.332L7.62 36.31a18.118 18.118 0 0 1-.435-2.741L23.868 8.321c3.119-1.01 6.311-1.371 9.575-1.155 5.947.505 11.533 3.103 15.667 7.358a24.004 24.004 0 0 1 6.746 18.756c-1.088 13.346-12.839 23.372-26.258 22.29-2.394-.216-4.714-.721-6.89-1.588l-5.658 5.411a32.237 32.237 0 0 0 11.896 3.39c17.408 1.515 32.713-11.469 34.091-28.782.725-8.945-2.466-17.817-8.777-24.31C48.893 4.137 41.639.746 33.951.097A33.143 33.143 0 0 0 31.437 0c-3.85 0-7.632.682-11.268 2.045" mask="url(#H)"/></g><g transform="translate(48.355 105.059)"><mask id="K" fill="#fff"><use xlink:href="#I"/></mask><path fill="url(#J)" d="M0 .935v1.509l.823 6.255c3.264-.577 5.585-1.875 10.01 2.236 7.253 6.782 15.957 21.93 37.79 19.189 8.052-1.009 18.134-7.863 24.081-10.387-.141-.071 37.971-21.276 64.485 4.918C114.328 1.376 92.033 3.149 70.892 12.09c-6.674 2.814-13.347 7.502-21.036 8.511C31.505 22.91 22.728 11.585 15.91 5.165 12.577 2.007 10.703 0 6.341 0 4.668 0 2.629.296 0 .935m139.437 26.088a51.56 51.56 0 0 0-2.248-2.368 99.36 99.36 0 0 1 2.248 2.368" mask="url(#K)"/></g></g></svg>